<svg width="512" height="512" viewBox="0 0 512 512" xmlns="http://www.w3.org/2000/svg" fill="none">
  <defs>
    <linearGradient id="pawGradient" x1="0%" y1="0%" x2="100%" y2="100%">
      <stop offset="0%" stop-color="#ff8a65"/>
      <stop offset="50%" stop-color="#ff7043"/>
      <stop offset="100%" stop-color="#f4511e"/>
    </linearGradient>
    <linearGradient id="heartGradient" x1="0%" y1="0%" x2="100%" y2="100%">
      <stop offset="0%" stop-color="#e91e63"/>
      <stop offset="100%" stop-color="#ad1457"/>
    </linearGradient>
  </defs>
  
  <!-- Background Circle -->
  <circle cx="256" cy="256" r="240" fill="url(#pawGradient)" stroke="#fff" stroke-width="8"/>
  
  <!-- Paw Print -->
  <g fill="#fff">
    <!-- Main pad -->
    <ellipse cx="256" cy="280" rx="45" ry="38"/>
    
    <!-- Top left toe -->
    <ellipse cx="200" cy="220" rx="22" ry="30" transform="rotate(-20 200 220)"/>
    
    <!-- Top middle toe -->
    <ellipse cx="235" cy="200" rx="20" ry="28"/>
    
    <!-- Top right toe -->
    <ellipse cx="275" cy="200" rx="20" ry="28"/>
    
    <!-- Top far right toe -->
    <ellipse cx="310" cy="220" rx="22" ry="30" transform="rotate(20 310 220)"/>
  </g>
  
  <!-- Heart accent -->
  <path d="M256 180c-8-16-32-16-40 0s8 24 16 32c8 8 24-8 24-32z" fill="url(#heartGradient)"/>
  <path d="M256 180c8-16 32-16 40 0s-8 24-16 32c-8 8-24-8-24-32z" fill="url(#heartGradient)"/>
  
  <!-- AI Brain Circuit Lines -->
  <g stroke="#fff" stroke-width="2" fill="none" opacity="0.6">
    <circle cx="180" cy="160" r="3" fill="#fff"/>
    <circle cx="220" cy="140" r="3" fill="#fff"/>
    <circle cx="290" cy="140" r="3" fill="#fff"/>
    <circle cx="330" cy="160" r="3" fill="#fff"/>
    
    <line x1="180" y1="160" x2="220" y2="140"/>
    <line x1="220" y1="140" x2="290" y2="140"/>
    <line x1="290" y1="140" x2="330" y2="160"/>
    <line x1="200" y1="220" x2="180" y2="160"/>
    <line x1="310" y1="220" x2="330" y2="160"/>
  </g>
</svg>
